<?xml version="1.0" encoding="UTF-8"?>
<svg width="57px" height="27px" viewBox="0 0 57 27" version="1.1" xmlns="http://www.w3.org/2000/svg" xmlns:xlink="http://www.w3.org/1999/xlink">
    <title>logo</title>
    <defs>
        <filter x="-2.0%" y="-2.7%" width="103.9%" height="106.0%" filterUnits="objectBoundingBox" id="filter-1">
            <feOffset dx="0" dy="2" in="SourceAlpha" result="shadowOffsetOuter1"></feOffset>
            <feGaussianBlur stdDeviation="2" in="shadowOffsetOuter1" result="shadowBlurOuter1"></feGaussianBlur>
            <feColorMatrix values="0 0 0 0 0   0 0 0 0 0   0 0 0 0 0  0 0 0 0.5 0" type="matrix" in="shadowBlurOuter1" result="shadowMatrixOuter1"></feColorMatrix>
            <feMerge>
                <feMergeNode in="shadowMatrixOuter1"></feMergeNode>
                <feMergeNode in="SourceGraphic"></feMergeNode>
            </feMerge>
        </filter>
    </defs>
    <g id="Page-1" stroke="none" stroke-width="1" fill="none" fill-rule="evenodd">
        <g id="Home" transform="translate(-691.000000, -781.000000)" fill="#D0BCF4">
            <g id="Sequence-Laptop" transform="translate(338.000000, 379.000000)">
                <g filter="url(#filter-1)" transform="translate(0.000000, 0.000000)" id="Apple-Macbook">
                    <g id="Display" transform="translate(69.227807, 0.000000)">
                        <path d="M299.64285,419.085981 L299.475508,415.988101 C299.398809,414.543812 299.36046,413.528638 299.36046,412.94255 L299.339542,412.94255 C299.018802,413.975182 298.72247,414.868255 298.450538,415.621798 L297.205931,419.044118 L296.515646,419.044118 L295.365169,415.684592 C295.009565,414.610097 294.741124,413.696092 294.559836,412.94255 L294.538918,412.94255 C294.518,413.842614 294.472679,414.882208 294.402952,416.061362 L294.214693,419.085981 L293.346606,419.085981 L293.838173,412.032024 L294.999108,412.032024 L296.201879,415.443879 C296.480784,416.281148 296.71785,417.073053 296.913083,417.819618 L296.934001,417.819618 C297.101344,417.177712 297.352354,416.385807 297.68704,415.443879 L298.942105,412.032024 L300.10304,412.032024 L300.542313,419.085981 L299.64285,419.085981 Z M305.232373,415.977635 L305.232373,417.871947 C305.232373,418.360354 305.256777,418.765028 305.305585,419.085981 L304.479334,419.085981 L304.406121,418.447567 L304.374745,418.447567 C304.221347,418.663861 304.010429,418.843523 303.741983,418.986556 C303.473537,419.129589 303.168489,419.201105 302.826831,419.201105 C302.338748,419.201105 301.958745,419.058074 301.686813,418.772007 C301.414881,418.48594 301.278917,418.14406 301.278917,417.746357 C301.278917,417.13236 301.54213,416.663147 302.068562,416.338706 C302.594995,416.014264 303.346284,415.855534 304.32245,415.862511 L304.32245,415.757853 C304.32245,415.632263 304.310248,415.511907 304.285844,415.396783 C304.26144,415.281658 304.212633,415.157814 304.13942,415.025246 C304.066208,414.892679 303.947675,414.788022 303.783818,414.711272 C303.619962,414.634522 303.416016,414.596148 303.171974,414.596148 C302.656,414.596148 302.213245,414.721737 301.843696,414.972917 L301.634519,414.355434 C302.101684,414.06239 302.659486,413.91587 303.307939,413.91587 C304.012174,413.91587 304.508966,414.11123 304.798329,414.501956 C305.087693,414.892681 305.232373,415.38457 305.232373,415.977635 L305.232373,415.977635 Z M304.343368,417.380054 L304.343368,416.500926 C302.913981,416.473017 302.199298,416.853271 302.199298,417.641699 C302.199298,417.927766 302.281225,418.145802 302.445082,418.295812 C302.608938,418.445823 302.812885,418.520827 303.056926,418.520827 C303.370694,418.520827 303.63565,418.438846 303.851801,418.274881 C304.067952,418.110916 304.217861,417.910323 304.301533,417.673097 C304.329423,417.582392 304.343368,417.484713 304.343368,417.380054 L304.343368,417.380054 Z M309.870138,418.217319 L310.027021,418.908062 C309.615636,419.103425 309.131046,419.201105 308.573237,419.201105 C307.813221,419.201105 307.203126,418.963882 306.742933,418.48943 C306.28274,418.014977 306.052647,417.390524 306.052647,416.61605 C306.052647,415.827621 306.301915,415.180492 306.800457,414.674642 C307.299,414.168792 307.956159,413.91587 308.771956,413.91587 C309.287929,413.91587 309.713253,414.006573 310.047939,414.187981 L309.838761,414.889191 C309.531966,414.728714 309.176368,414.648477 308.771956,414.648477 C308.214146,414.648477 307.776621,414.831627 307.459366,415.197932 C307.142112,415.564237 306.983488,416.019496 306.983488,416.563721 C306.983488,417.142832 307.149085,417.603323 307.480284,417.945208 C307.811484,418.287093 308.231578,418.458033 308.740579,418.458033 C309.131046,418.458033 309.507561,418.377795 309.870138,418.217319 L309.870138,418.217319 Z M310.836837,419.06505 L310.836837,412.136682 C311.276112,412.032024 311.830427,411.979695 312.499798,411.979695 C313.371376,411.979695 314.012847,412.150635 314.424232,412.49252 C314.821671,412.785564 315.020388,413.200704 315.020388,413.737951 C315.020388,414.079836 314.914057,414.390319 314.701392,414.669409 C314.488727,414.948498 314.197625,415.154324 313.828076,415.286892 L313.828076,415.318289 C314.218542,415.408993 314.558452,415.604353 314.847816,415.904374 C315.13718,416.204396 315.28186,416.595116 315.28186,417.076545 C315.28186,417.648679 315.079657,418.119636 314.675245,418.48943 C314.208079,418.928996 313.399267,419.148776 312.248785,419.148776 C311.711893,419.148776 311.241249,419.120868 310.836837,419.06505 L310.836837,419.06505 Z M311.746759,412.743699 L311.746759,415.025246 L312.57301,415.025246 C313.040176,415.025246 313.409719,414.913612 313.681651,414.69034 C313.953584,414.467069 314.089548,414.181006 314.089548,413.832144 C314.089548,413.064647 313.577068,412.680905 312.552093,412.680905 C312.210434,412.680905 311.941992,412.701836 311.746759,412.743699 L311.746759,412.743699 Z M311.746759,415.705524 L311.746759,418.395238 C311.914102,418.423147 312.168599,418.437101 312.510257,418.437101 C313.033204,418.437101 313.4655,418.327211 313.807158,418.107428 C314.148816,417.887645 314.319643,417.540532 314.319643,417.06608 C314.319643,416.612559 314.148816,416.272423 313.807158,416.045663 C313.4655,415.818903 313.029717,415.705524 312.499798,415.705524 L311.746759,415.705524 Z M318.361252,413.91587 C319.086404,413.91587 319.673839,414.156582 320.123573,414.638011 C320.573307,415.119441 320.79817,415.743895 320.79817,416.511392 C320.79817,417.383547 320.54716,418.049864 320.045131,418.510362 C319.543103,418.97086 318.953925,419.201105 318.277581,419.201105 C317.580319,419.201105 317.0016,418.962138 316.541407,418.484197 C316.081214,418.006256 315.851121,417.376569 315.851121,416.595118 C315.851121,415.778781 316.08993,415.128163 316.567554,414.643244 C317.045179,414.158326 317.643072,413.91587 318.361252,413.91587 L318.361252,413.91587 Z M318.340334,414.606614 C317.838306,414.606614 317.454817,414.800229 317.189858,415.187466 C316.924898,415.574703 316.79242,416.03345 316.79242,416.563721 C316.79242,417.1219 316.935357,417.58588 317.221234,417.955674 C317.507112,418.325467 317.873169,418.510362 318.319416,418.510362 C318.758691,418.510362 319.124748,418.323723 319.417599,417.950441 C319.710449,417.577158 319.856871,417.107946 319.856871,416.542789 C319.856871,416.047405 319.729623,415.600868 319.475122,415.203165 C319.220622,414.805462 318.842363,414.606614 318.340334,414.606614 L318.340334,414.606614 Z M323.80435,413.91587 C324.529503,413.91587 325.116937,414.156582 325.566671,414.638011 C326.016405,415.119441 326.241269,415.743895 326.241269,416.511392 C326.241269,417.383547 325.990258,418.049864 325.48823,418.510362 C324.986201,418.97086 324.397024,419.201105 323.720679,419.201105 C323.023417,419.201105 322.444699,418.962138 321.984506,418.484197 C321.524313,418.006256 321.29422,417.376569 321.29422,416.595118 C321.29422,415.778781 321.533029,415.128163 322.010653,414.643244 C322.488277,414.158326 323.086171,413.91587 323.80435,413.91587 L323.80435,413.91587 Z M323.783433,414.606614 C323.281404,414.606614 322.897916,414.800229 322.632956,415.187466 C322.367997,415.574703 322.235519,416.03345 322.235519,416.563721 C322.235519,417.1219 322.378455,417.58588 322.664333,417.955674 C322.95021,418.325467 323.316267,418.510362 323.762515,418.510362 C324.20179,418.510362 324.567847,418.323723 324.860697,417.950441 C325.153547,417.577158 325.29997,417.107946 325.29997,416.542789 C325.29997,416.047405 325.172722,415.600868 324.918221,415.203165 C324.66372,414.805462 324.285461,414.606614 323.783433,414.606614 L323.783433,414.606614 Z M328.013301,411.655255 L328.013301,416.343939 L328.034219,416.343939 C328.173672,416.148576 328.320094,415.956704 328.473492,415.768319 L329.969112,414.020528 L331.067294,414.020528 L329.121942,416.103225 L331.349683,419.085981 L330.220125,419.085981 L328.483951,416.657913 L328.013301,417.181204 L328.013301,419.085981 L327.103379,419.085981 L327.103379,411.655255 L328.013301,411.655255 Z" id="logo"></path>
                    </g>
                </g>
            </g>
        </g>
    </g>
</svg>