<svg width="64" height="64" viewBox="0 0 64 64" fill="none" xmlns="http://www.w3.org/2000/svg">
<path d="M17 50H45V51H17V50Z" fill="white"/>
<path d="M47 11H45V10C45 8.897 44.103 8 43 8H35.576C34.802 6.237 33.045 5 31 5C28.955 5 27.198 6.237 26.424 8H19C17.897 8 17 8.897 17 10V11H15C12.794 11 11 12.794 11 15V53C11 55.206 12.794 57 15 57H47C49.206 57 51 55.206 51 53V15C51 12.794 49.206 11 47 11ZM43 10V11H36V10H43ZM28 10C28 8.346 29.346 7 31 7C32.654 7 34 8.346 34 10L34.001 17H28V10ZM28 19H34C35.103 19 36 18.103 36 17H45V48H17V17H26C26 18.103 26.897 19 28 19ZM17 50H45V51H17V50ZM19 10H26V11H19V10ZM49 53C49 54.103 48.103 55 47 55H15C13.897 55 13 54.103 13 53V15C13 13.897 13.897 13 15 13H26V15H17C15.897 15 15 15.897 15 17V48V51C15 52.103 15.897 53 17 53H45C46.103 53 47 52.103 47 51V48V17C47 15.897 46.103 15 45 15H36V13H47C48.103 13 49 13.897 49 15V53Z" fill="#6610F2"/>
<path d="M21 24H29V26H21V24Z" fill="#FFC107"/>
<path d="M21 36H28V38H21V36Z" fill="#FFC107"/>
<path d="M35.75 30.645C36.263 30.645 36.775 30.45 37.166 30.06L41.613 25.613L40.199 24.199L35.748 28.646L32.957 25.854L31.543 27.268L34.335 30.06C34.725 30.45 35.237 30.645 35.75 30.645Z" fill="#FFC107"/>
<path d="M35.75 42.645C36.263 42.645 36.775 42.45 37.166 42.06L41.613 37.613L40.199 36.199L35.748 40.646L32.957 37.854L31.543 39.268L34.335 42.06C34.725 42.45 35.237 42.645 35.75 42.645Z" fill="#FFC107"/>
<path d="M21 28H27V30H21V28Z" fill="#FFC107"/>
<path d="M21 40H26V42H21V40Z" fill="#FFC107"/>
</svg>
