<?xml version="1.0" encoding="UTF-8"?>
<svg width="1440px" height="963px" viewBox="0 0 1440 963" version="1.1" xmlns="http://www.w3.org/2000/svg" xmlns:xlink="http://www.w3.org/1999/xlink">
    <title>Lines@3x</title>
    <defs>
        <linearGradient x1="43.7037843%" y1="0.457564181%" x2="60.2023057%" y2="74.9556155%" id="linearGradient-1">
            <stop stop-color="#7952CA" offset="0%"></stop>
            <stop stop-color="#855ED2" stop-opacity="0" offset="100%"></stop>
        </linearGradient>
        <linearGradient x1="39.8098829%" y1="16.0075522%" x2="60.5694178%" y2="67.2219343%" id="linearGradient-2">
            <stop stop-color="#7952CA" offset="0%"></stop>
            <stop stop-color="#855ED2" stop-opacity="0" offset="100%"></stop>
        </linearGradient>
        <linearGradient x1="42.0529911%" y1="11.6563833%" x2="60.0086487%" y2="67.0808863%" id="linearGradient-3">
            <stop stop-color="#7952CA" offset="0%"></stop>
            <stop stop-color="#855ED2" stop-opacity="0" offset="100%"></stop>
        </linearGradient>
    </defs>
    <g id="Page-1" stroke="none" stroke-width="1" fill="none" fill-rule="evenodd">
        <g id="Top-Header-Background" transform="translate(613.203212, 290.013187) scale(-1, 1) translate(-613.203212, -290.013187) translate(-491.167505, -553.435652)">
            <g id="Lines" transform="translate(-0.000000, 0.000000)">
                <path d="M1591.88459,219.435652 C1586.25071,221.113306 1582.0318,222.3852 1579.22787,223.251334 C1565.62502,227.453245 1552.16124,231.93987 1538.86589,236.702209 C1302.91736,321.218029 1140.76767,560.928077 858.043728,616.572533 C618.636481,663.691593 386.849666,633.974439 162.484723,529.780456 C158.723641,528.033828 153.08671,525.36681 145.573929,521.779401 L433.629291,1467.46203 L1833.16583,1039.58077 L1591.88459,219.435652 Z" id="1" fill="url(#linearGradient-1)" fill-rule="nonzero" opacity="0.466359456" transform="translate(989.369879, 843.448839) scale(-1, 1) rotate(-163.000000) translate(-989.369879, -843.448839) "></path>
                <path d="M1602.15801,229.435652 C1590.73744,233.254153 1582.2049,236.174324 1576.56039,238.196162 C1340.61186,322.711983 1118.21288,580.842084 835.488948,636.48654 C608.690172,681.124057 388.730299,656.80546 175.440517,565.536647 C172.579475,564.312379 168.290613,562.448878 162.573929,559.946143 L414.533126,1373.49882 L1817.40345,955.631226 L1602.15801,229.435652 Z" id="2" fill="url(#linearGradient-2)" fill-rule="nonzero" opacity="0.331333705" transform="translate(989.988691, 801.467237) scale(-1, 1) rotate(-163.000000) translate(-989.988691, -801.467237) "></path>
                <path d="M1605.31304,227.435652 C1591.68299,231.931721 1581.50676,235.383726 1574.78435,237.791665 C1338.83582,322.307486 1126.47839,577.367578 843.754452,633.012034 C630.241172,675.03476 401.752894,648.888144 179.000117,563.239126 C160.341612,556.064883 329.598857,1059.11497 403.922006,1298.92548 C463.014178,1280.85919 929.202115,1141.21099 1802.48582,879.980904 L1605.31304,227.435652 Z" id="3" fill="url(#linearGradient-3)" fill-rule="nonzero" opacity="0.100000001" transform="translate(990.029874, 763.180564) scale(-1, 1) rotate(-163.000000) translate(-990.029874, -763.180564) "></path>
                <path d="M337.297611,1364.14327 C516.744973,1364.14327 774.186342,1231.5168 1094.68634,1195.83181 C1308.35301,1172.04182 1554.757,1273.23786 1833.89833,1499.41992 L1833.89833,1515.71712 L337.297611,1515.71712 C217.666036,1414.66789 217.666036,1364.14327 337.297611,1364.14327 Z" id="Rectangle" fill="#FFFFFF" transform="translate(1040.736129, 1354.076384) scale(-1, 1) translate(-1040.736129, -1354.076384) "></path>
            </g>
        </g>
    </g>
</svg>