<svg width="64" height="64" viewBox="0 0 64 64" fill="none" xmlns="http://www.w3.org/2000/svg">
<path d="M22 32C22 32.552 21.552 33 21 33H17C16.448 33 16 32.552 16 32V28C16 27.448 16.448 27 17 27H21C21.552 27 22 27.448 22 28V32Z" fill="#FFC107"/>
<path d="M30 32C30 32.552 29.552 33 29 33H25C24.448 33 24 32.552 24 32V28C24 27.448 24.448 27 25 27H29C29.552 27 30 27.448 30 28V32Z" fill="#6610F2"/>
<path d="M38 32C38 32.552 37.552 33 37 33H33C32.448 33 32 32.552 32 32V28C32 27.448 32.448 27 33 27H37C37.552 27 38 27.448 38 28V32Z" fill="#FFC107"/>
<path d="M22 40C22 40.552 21.552 41 21 41H17C16.448 41 16 40.552 16 40V36C16 35.448 16.448 35 17 35H21C21.552 35 22 35.448 22 36V40Z" fill="#6610F2"/>
<path d="M30 40C30 40.552 29.552 41 29 41H25C24.448 41 24 40.552 24 40V36C24 35.448 24.448 35 25 35H29C29.552 35 30 35.448 30 36V40Z" fill="#6610F2"/>
<path d="M38 40C38 40.552 37.552 41 37 41H33C32.448 41 32 40.552 32 40V36C32 35.448 32.448 35 33 35H37C37.552 35 38 35.448 38 36V40Z" fill="#6610F2"/>
<path d="M53 36H48V15C48 12.243 45.757 10 43 10H40V9C40 7.346 38.654 6 37 6H35C33.346 6 32 7.346 32 9V10H22V9C22 7.346 20.654 6 19 6H17C15.346 6 14 7.346 14 9V10H11C8.243 10 6 12.243 6 15V47C6 49.757 8.243 52 11 52H36V53C36 55.757 38.243 58 41 58H53C55.757 58 58 55.757 58 53V41C58 38.243 55.757 36 53 36ZM44 22H46V36H44V22ZM34 9C34 8.448 34.449 8 35 8H37C37.551 8 38 8.448 38 9V13C38 13.552 37.551 14 37 14H35C34.449 14 34 13.552 34 13V9ZM16 9C16 8.448 16.449 8 17 8H19C19.551 8 20 8.448 20 9V13C20 13.552 19.551 14 19 14H17C16.449 14 16 13.552 16 13V9ZM11 12H14V13C14 14.654 15.346 16 17 16H19C20.654 16 22 14.654 22 13V12H32V13C32 14.654 33.346 16 35 16H37C38.654 16 40 14.654 40 13V12H43C44.654 12 46 13.346 46 15V20H8V15C8 13.346 9.346 12 11 12ZM11 50C9.346 50 8 48.654 8 47V22H10V46C10 47.103 10.897 48 12 48H36V50H11ZM36 41V46H12V22H42V36H41C38.243 36 36 38.243 36 41ZM56 53C56 54.654 54.654 56 53 56H41C39.346 56 38 54.654 38 53V41C38 39.346 39.346 38 41 38H53C54.654 38 56 39.346 56 41V53Z" fill="#6610F2"/>
<path d="M48 41H46V48H53V46H48V41Z" fill="#FFC107"/>
</svg>
