<?xml version="1.0" encoding="UTF-8"?>
<svg width="134px" height="29px" viewBox="0 0 134 29" version="1.1" xmlns="http://www.w3.org/2000/svg" xmlns:xlink="http://www.w3.org/1999/xlink">
    <title>Group Copy</title>
    <g id="Page-1" stroke="none" stroke-width="1" fill="none" fill-rule="evenodd">
        <g id="Home" transform="translate(-1170.000000, -34.000000)" fill-rule="nonzero">
            <g id="header" transform="translate(-1.000000, 0.000000)">
                <g id="Group-Copy" transform="translate(1172.000000, 34.000000)">
                    <path d="M121.718774,8.54878678 C122.241612,8.54878678 122.684013,8.36912752 123.045977,8.00980898 C123.417997,7.64050938 123.604006,7.20134228 123.604006,6.69230769 C123.604006,5.87385992 123.895588,5.17518499 124.478753,4.59628291 C125.061918,4.01738083 125.765738,3.72792979 126.590213,3.72792979 L126.590213,3.72792979 L131.12985,3.72792979 C131.642633,3.72792979 132.085034,3.54327999 132.457053,3.17398038 C132.819018,2.81466185 133,2.37549475 133,1.85647909 C133,1.3474445 132.819018,0.91326794 132.457053,0.553949406 C132.085034,0.184649802 131.642633,0 131.12985,0 L131.12985,0 L126.590213,0 C124.730118,0 123.141496,0.65376011 121.824347,1.96128033 C120.507199,3.26880055 119.848625,4.84580967 119.848625,6.69230769 C119.848625,7.20134228 120.029607,7.64050938 120.391571,8.00980898 C120.763591,8.36912752 121.205992,8.54878678 121.718774,8.54878678 Z M127.525288,21.3944244 C128.048125,21.3944244 128.490526,21.2327376 128.852491,20.9093641 C129.22451,20.577008 129.410519,20.1817737 129.410519,19.7236612 L129.410519,19.7236612 L129.410519,7.24683279 C129.410519,6.7797377 129.22451,6.3845034 128.852491,6.06112988 C128.490526,5.73775635 128.048125,5.57606959 127.525288,5.57606959 C127.012505,5.57606959 126.570104,5.73775635 126.198085,6.06112988 C125.83612,6.3845034 125.655138,6.7797377 125.655138,7.24683279 L125.655138,7.24683279 L125.655138,19.7236612 C125.655138,20.1817737 125.83612,20.577008 126.198085,20.9093641 C126.570104,21.2327376 127.012505,21.3944244 127.525288,21.3944244 Z M112.433838,21.3794528 C114.072732,21.3794528 115.475345,20.8005507 116.641675,19.6427465 C117.808004,18.4849424 118.391169,17.092583 118.391169,15.4656686 C118.391169,13.8387541 117.808004,12.4463948 116.641675,11.2885906 C115.475345,10.1307864 114.072732,9.55188436 112.433838,9.55188436 L112.433838,9.55188436 L108.844357,9.55188436 C108.241083,9.55188436 107.723273,9.33729134 107.290926,8.90810532 C106.85858,8.48890036 106.642406,7.97986577 106.642406,7.38100155 C106.642406,6.77215626 106.85858,6.25813113 107.290926,5.83892617 C107.723273,5.40974015 108.241083,5.19514713 108.844357,5.19514713 L108.844357,5.19514713 L116.913148,5.19514713 C117.435985,5.19514713 117.878386,5.01049733 118.240351,4.64119773 C118.61237,4.28187919 118.798379,3.8427121 118.798379,3.32369644 C118.798379,2.81466185 118.61237,2.37549475 118.240351,2.00619515 C117.878386,1.63689554 117.435985,1.45224574 116.913148,1.45224574 L116.913148,1.45224574 L108.844357,1.45224574 C107.205462,1.45224574 105.80285,2.03114782 104.63652,3.18895199 C103.47019,4.34675615 102.887025,5.74410601 102.887025,7.38100155 C102.887025,9.00791602 103.47019,10.4002753 104.63652,11.5580795 C105.80285,12.7059026 107.205462,13.2798141 108.844357,13.2798141 L108.844357,13.2798141 L112.433838,13.2798141 C113.037112,13.2798141 113.554922,13.4944072 113.987269,13.9235932 C114.40956,14.3527792 114.620706,14.8668043 114.620706,15.4656686 C114.620706,16.0645328 114.40956,16.5785579 113.987269,17.0077439 C113.554922,17.43693 113.037112,17.651523 112.433838,17.651523 L112.433838,17.651523 L101.665395,17.651523 C101.142558,17.651523 100.700157,17.8311822 100.338192,18.1905008 C99.9661732,18.5598004 99.7801637,18.9989675 99.7801637,19.5080021 C99.7801637,20.0270177 99.9661732,20.4661848 100.338192,20.8255034 C100.700157,21.194803 101.142558,21.3794528 101.665395,21.3794528 L101.665395,21.3794528 L112.433838,21.3794528 Z M101.21294,21.3794528 C101.725723,21.3794528 102.168124,21.1997935 102.540143,20.840475 C102.902107,20.4711754 103.083089,20.0320083 103.083089,19.5229737 C103.083089,19.003958 102.902107,18.5647909 102.540143,18.2054724 C102.168124,17.8361728 101.725723,17.651523 101.21294,17.651523 C100.579502,17.651523 100.036555,17.4269489 99.5840996,16.9778007 C99.1316441,16.5286526 98.9054163,15.9896748 98.9054163,15.3608673 L98.9054163,3.77284461 C98.9054163,3.25382895 98.7194068,2.81466185 98.3473877,2.45534331 C97.9854233,2.08604371 97.5430223,1.90139391 97.0201847,1.90139391 C96.5074018,1.90139391 96.0650008,2.08604371 95.6929817,2.45534331 C95.3310173,2.81466185 95.1500351,3.25382895 95.1500351,3.77284461 L95.1500351,15.3608673 C95.1500351,17.017725 95.7432546,18.435037 96.9296936,19.6128033 C98.1161327,20.7905696 99.5438814,21.3794528 101.21294,21.3794528 Z M75.0911715,29 C75.614009,29 76.05641,28.8203407 76.4183745,28.4610222 C76.7903935,28.0917226 76.976403,27.6525555 76.976403,27.1435209 L76.976403,24.4636035 C76.976403,23.5952504 77.2830674,22.8566512 77.896396,22.2478059 C78.5197793,21.6289795 79.2688446,21.3195663 80.143592,21.3195663 L85.2865036,21.3195663 C85.5378679,21.3495096 85.7791775,21.3644812 86.0104326,21.3644812 C87.840364,21.3644812 89.4088766,20.7157116 90.7159705,19.4181724 C92.0130098,18.1306144 92.6615294,16.5785579 92.6615294,14.7620031 C92.6615294,12.9354672 92.0130098,11.3784202 90.7159705,10.0908622 C89.4088766,8.80330408 87.840364,8.15952504 86.0104326,8.15952504 C84.1805011,8.15952504 82.6119885,8.80330408 81.3048946,10.0908622 C80.0078553,11.3884013 79.3593357,12.9454483 79.3593357,14.7620031 C79.3593357,15.7501291 79.5805362,16.6983308 80.0229372,17.6066082 C78.1427329,17.6365514 76.5390293,18.3202547 75.2118263,19.6577181 C73.8846233,20.9951816 73.2210218,22.5971433 73.2210218,24.4636035 L73.2210218,27.1435209 C73.2210218,27.6525555 73.402004,28.0917226 73.7639685,28.4610222 C74.1359875,28.8203407 74.5783885,29 75.0911715,29 Z M86.0104326,17.6365514 C85.2060671,17.6365514 84.5223565,17.3570814 83.9593006,16.7981415 C83.3962448,16.2292204 83.1147169,15.5505077 83.1147169,14.7620031 C83.1147169,13.9635175 83.3962448,13.2848047 83.9593006,12.7258647 C84.5223565,12.1669248 85.2060671,11.8874548 86.0104326,11.8874548 C86.8047434,11.8874548 87.4884541,12.1669248 88.0615645,12.7258647 C88.6246203,13.2848047 88.9061482,13.9635175 88.9061482,14.7620031 C88.9061482,15.5505077 88.6246203,16.2292204 88.0615645,16.7981415 C87.4884541,17.3570814 86.8047434,17.6365514 86.0104326,17.6365514 Z" id="آکامنت" fill="#FFFFFF"></path>
                    <path d="M61.1945672,22.4936551 C62.9960008,22.4936551 64.4888222,21.7247573 65.6730316,20.1869616 C66.2471937,19.3753472 66.5342747,18.5210162 66.5342747,17.6239687 L66.5342747,17.6239687 L66.5342747,8.22632836 C66.5342747,6.60309957 65.7160937,5.22193122 64.0797317,4.08282329 C63.053417,3.57022473 62.0916955,3.31392545 61.1945672,3.31392545 L61.1945672,3.31392545 L59.8165781,3.31392545 C59.1849998,3.47055279 58.8692107,3.78380746 58.8692107,4.25368948 L58.8692107,4.25368948 L58.8692107,4.46727222 C58.8692107,5.02970676 59.2567701,5.35720028 60.0318889,5.4497528 L60.0318889,5.4497528 L61.2806915,5.4497528 C62.773513,5.4497528 63.7782966,6.30408374 64.2950425,8.01274563 C64.3524587,8.50398592 64.3811668,9.03082334 64.3811668,9.59325787 L64.3811668,9.59325787 L64.3811668,16.2570392 C64.3811668,17.9443428 64.0223155,19.0407342 63.3046129,19.5462134 C62.787867,20.0872896 62.1132265,20.3578277 61.2806915,20.3578277 L61.2806915,20.3578277 L59.9027025,20.3578277 C59.3285403,20.3578277 58.9840431,20.713799 58.8692107,21.4257414 L58.8692107,21.4257414 L58.8692107,21.5111745 C59.0127512,22.1661616 59.3428944,22.4936551 59.8596403,22.4936551 L59.8596403,22.4936551 L61.1945672,22.4936551 Z" id="Path" stroke="#FFCB0B" fill="#FFCB0B"></path>
                    <path d="M53.3157189,8.12958183 C53.8385565,8.12958183 54.2809575,8.30924109 54.6429219,8.66855963 C55.014941,9.03785923 55.2009505,9.47702633 55.2009505,9.98606092 L55.2009505,9.98606092 L55.2009505,14.7021167 L55.1948526,15.0057538 C55.1257429,16.712486 54.4692013,18.1832922 53.2252278,19.4181724 C51.9080794,20.7256927 50.3194576,21.3794528 48.4593625,21.3794528 L48.4593625,21.3794528 L44.5079172,21.3794528 L44.4621696,21.3765478 L44.4174261,21.3794528 C42.6131897,21.3794528 41.0645534,20.7651548 39.7715173,19.536559 L39.5459878,19.3133712 C38.2187848,20.6907589 36.5999993,21.3794528 34.6896314,21.3794528 L34.6896314,21.3794528 L18.0543483,21.3794528 C16.2143623,21.3794528 14.6458497,20.7306832 13.3488104,19.433144 C12.0417165,18.145586 11.3881696,16.588539 11.3881696,14.7620031 C11.3881696,12.9354672 12.0417165,11.3734297 13.3488104,10.0758906 C14.6458497,8.7783514 16.2143623,8.12958183 18.0543483,8.12958183 C18.5771858,8.12958183 19.0195868,8.30924109 19.3815513,8.66855963 C19.7535703,9.03785923 19.9395798,9.47702633 19.9395798,9.98606092 C19.9395798,10.5050766 19.7535703,10.9442437 19.3815513,11.3035622 C19.0195868,11.6728618 18.5822131,11.8575116 18.0694301,11.8575116 C17.2550101,11.8575116 16.5612449,12.1419721 15.9881345,12.7108931 C15.4250787,13.2698331 15.1435508,13.9535364 15.1435508,14.7620031 C15.1435508,15.5604887 15.4250787,16.244192 15.9881345,16.8131131 C16.5612449,17.372053 17.2499828,17.651523 18.0543483,17.651523 L18.0543483,17.651523 L34.6896314,17.651523 C35.5141059,17.651523 36.2179257,17.3620719 36.8010907,16.7831699 C37.3842556,16.2042678 37.6758381,15.5105834 37.6758381,14.7021167 L37.6758381,14.7021167 L37.6758381,9.98606092 C37.6758381,9.47702633 37.8568203,9.03785923 38.2187848,8.66855963 C38.5908038,8.30924109 39.0332048,8.12958183 39.5459878,8.12958183 C40.0688253,8.12958183 40.5112263,8.30924109 40.8731908,8.66855963 C41.2452098,9.03785923 41.4312193,9.47702633 41.4312193,9.98606092 L41.4312193,9.98606092 L41.4312193,14.7021167 C41.4312193,15.5105834 41.7228018,16.2042678 42.3059668,16.7831699 C42.8891317,17.3620719 43.5929515,17.651523 44.4174261,17.651523 C44.4326875,17.651523 44.4478821,17.6516865 44.4630099,17.6520136 L44.5079172,17.651523 L48.4593625,17.651523 L48.6812278,17.6443465 C49.4108072,17.5965034 50.0406719,17.3094445 50.5708218,16.7831699 C51.1539868,16.2042678 51.4455693,15.5105834 51.4455693,14.7021167 L51.4455693,14.7021167 L51.4455693,9.98606092 L51.4540528,9.79844799 C51.4936427,9.36832623 51.671797,8.99169678 51.9885159,8.66855963 C52.360535,8.30924109 52.802936,8.12958183 53.3157189,8.12958183 Z M25.2433492,8.44853076 C25.8135151,8.44853076 26.2976183,8.64609613 26.6956587,9.04122687 C27.1044569,9.44703682 27.308856,9.93294084 27.308856,10.4989389 C27.308856,11.064937 27.1044569,11.5455014 26.6956587,11.9406322 C26.2976183,12.3357629 25.8135151,12.5333283 25.2433492,12.5333283 C24.6731833,12.5333283 24.1837012,12.3357629 23.774903,11.9406322 C23.3768626,11.5455014 23.1778424,11.064937 23.1778424,10.4989389 C23.1778424,9.93294084 23.3768626,9.44703682 23.774903,9.04122687 C24.1837012,8.64609613 24.6731833,8.44853076 25.2433492,8.44853076 Z M29.7616453,8.44853076 C30.3318113,8.44853076 30.8159144,8.64609613 31.2139548,9.04122687 C31.622753,9.44703682 31.8271521,9.93294084 31.8271521,10.4989389 C31.8271521,11.064937 31.622753,11.5455014 31.2139548,11.9406322 C30.8159144,12.3357629 30.3318113,12.5333283 29.7616453,12.5333283 C29.1914794,12.5333283 28.7019973,12.3357629 28.2931991,11.9406322 C27.8951587,11.5455014 27.6961385,11.064937 27.6961385,10.4989389 C27.6961385,9.93294084 27.8951587,9.44703682 28.2931991,9.04122687 C28.7019973,8.64609613 29.1914794,8.44853076 29.7616453,8.44853076 Z M48.3638288,2.63954779 C48.9339947,2.63954779 49.4180979,2.83711316 49.8161382,3.23224391 C50.2249365,3.63805386 50.4293356,4.12395788 50.4293356,4.68995596 C50.4293356,5.25595405 50.2249365,5.73651847 49.8161382,6.13164921 C49.4180979,6.52677995 48.9339947,6.72434532 48.3638288,6.72434532 C47.7936628,6.72434532 47.3041807,6.52677995 46.8953825,6.13164921 C46.4973421,5.73651847 46.298322,5.25595405 46.298322,4.68995596 C46.298322,4.12395788 46.4973421,3.63805386 46.8953825,3.23224391 C47.3041807,2.83711316 47.7936628,2.63954779 48.3638288,2.63954779 Z" id="Combined-Shape" fill="#FFFFFF"></path>
                    <path d="M6.67463444,22.4936551 C7.19138033,22.4936551 7.52152354,22.1661616 7.66506407,21.5111745 L7.66506407,21.5111745 L7.66506407,21.4257414 C7.55023164,20.713799 7.20573438,20.3578277 6.63157228,20.3578277 L6.63157228,20.3578277 L5.25358324,20.3578277 C4.42104819,20.3578277 3.74640772,20.0872896 3.22966183,19.5462134 C2.5119592,19.0407342 2.15310788,17.9443428 2.15310788,16.2570392 L2.15310788,16.2570392 L2.15310788,9.59325787 C2.15310788,9.03082334 2.18181599,8.50398592 2.2392322,8.01274563 C2.75597809,6.30408374 3.76076177,5.4497528 5.25358324,5.4497528 L5.25358324,5.4497528 L6.50238581,5.4497528 C7.27750465,5.35720028 7.66506407,5.02970676 7.66506407,4.46727222 L7.66506407,4.46727222 L7.66506407,4.25368948 C7.66506407,3.78380746 7.34927491,3.47055279 6.7176966,3.31392545 L6.7176966,3.31392545 L5.33970755,3.31392545 C4.44257927,3.31392545 3.48085775,3.57022473 2.45454299,4.08282329 C0.818180996,5.22193122 0,6.60309957 0,8.22632836 L0,8.22632836 L0,17.6239687 C0,18.5210162 0.287081051,19.3753472 0.861243153,20.1869616 C2.04545249,21.7247573 3.53827396,22.4936551 5.33970755,22.4936551 L5.33970755,22.4936551 L6.67463444,22.4936551 Z" id="Path" stroke="#FFCB0B" fill="#FFCB0B"></path>
                </g>
            </g>
        </g>
    </g>
</svg>