<svg width="64" height="64" viewBox="0 0 64 64" fill="none" xmlns="http://www.w3.org/2000/svg">
<path d="M15 52H11C10.448 52 10 51.552 10 51V47C10 46.448 10.448 46 11 46H15C15.552 46 16 46.448 16 47V51C16 51.552 15.552 52 15 52Z" fill="#FFC107"/>
<path d="M34 18H30C29.448 18 29 17.552 29 17V13C29 12.448 29.448 12 30 12H34C34.552 12 35 12.448 35 13V17C35 17.552 34.552 18 34 18Z" fill="#701FF3"/>
<path d="M34 52H30C29.448 52 29 51.552 29 51V47C29 46.448 29.448 46 30 46H34C34.552 46 35 46.448 35 47V51C35 51.552 34.552 52 34 52Z" fill="#FFC107"/>
<path d="M53 52H49C48.448 52 48 51.552 48 51V47C48 46.448 48.448 46 49 46H53C53.552 46 54 46.448 54 47V51C54 51.552 53.552 52 53 52Z" fill="#FFC107"/>
<path d="M55 42H54V40C54 38.897 53.103 38 52 38V34C52 32.346 50.654 31 49 31H34C33.449 31 33 30.552 33 30V26C34.103 26 35 25.103 35 24V22H36C37.654 22 39 20.654 39 19V11C39 9.346 37.654 8 36 8H28C26.346 8 25 9.346 25 11V19C25 20.654 26.346 22 28 22H29V24C29 25.103 29.897 26 31 26V30C31 30.552 30.551 31 30 31H15C13.346 31 12 32.346 12 34V38C10.897 38 10 38.897 10 40V42H9C7.346 42 6 43.346 6 45V53C6 54.654 7.346 56 9 56H17C18.654 56 20 54.654 20 53V45C20 43.346 18.654 42 17 42H16V40C16 38.897 15.103 38 14 38V34C14 33.448 14.449 33 15 33H30C30.551 33 31 33.448 31 34V38C29.897 38 29 38.897 29 40V42H28C26.346 42 25 43.346 25 45V53C25 54.654 26.346 56 28 56H36C37.654 56 39 54.654 39 53V45C39 43.346 37.654 42 36 42H35V40C35 38.897 34.103 38 33 38V34C33 33.448 33.449 33 34 33H49C49.551 33 50 33.448 50 34V38C48.897 38 48 38.897 48 40V42H47C45.346 42 44 43.346 44 45V53C44 54.654 45.346 56 47 56H55C56.654 56 58 54.654 58 53V45C58 43.346 56.654 42 55 42ZM27 19V11C27 10.448 27.449 10 28 10H36C36.551 10 37 10.448 37 11V19C37 19.552 36.551 20 36 20H28C27.449 20 27 19.552 27 19ZM33 22L33.001 24H31V22H33ZM18 45V53C18 53.552 17.551 54 17 54H9C8.449 54 8 53.552 8 53V45C8 44.448 8.449 44 9 44H17C17.551 44 18 44.448 18 45ZM12 42V40H14V42H12ZM37 45V53C37 53.552 36.551 54 36 54H28C27.449 54 27 53.552 27 53V45C27 44.448 27.449 44 28 44H36C36.551 44 37 44.448 37 45ZM31 42V40H33V42H31ZM50 40H52V42H50V40ZM56 53C56 53.552 55.551 54 55 54H47C46.449 54 46 53.552 46 53V45C46 44.448 46.449 44 47 44H55C55.551 44 56 44.448 56 45V53Z" fill="#701FF3"/>
</svg>
