<svg width="64" height="64" viewBox="0 0 64 64" fill="none" xmlns="http://www.w3.org/2000/svg">
<path d="M64 0H0V64H64V0Z" fill="white"/>
<path d="M47 46C48.6569 46 50 44.6569 50 43C50 41.3431 48.6569 40 47 40C45.3431 40 44 41.3431 44 43C44 44.6569 45.3431 46 47 46Z" fill="#FFC107"/>
<path d="M24 44H10V46H24V44Z" fill="#FFC107"/>
<path d="M20 40H10V42H20V40Z" fill="#6610F2"/>
<path d="M56 40H55.5C55.4 40 55.3 39.4 55.1 39.1L55.4 38.8C56.2 38 56.2 36.8 55.4 36L54 34.6C53.6 34.2 53.1 34 52.6 34C52.1 34 51.6 34.2 51.2 34.6L50.8 34.9C50.5 34.8 49.9 34.6 49.9 34.5V34C49.9 32.9 49 32 47.9 32V17.3C47.9 17 47.9 16.7 47.7 16.3L46.4 12C46 10.8 44.8 10 43.6 10H10.4C9.1 10 8 10.8 7.6 12L6.2 16.3C6.1 16.7 6 17 6 17.3V45C6 47.8 8.2 50 11 50H38.5C38.5 50 38.5 50 38.5 50.1L39.9 51.5C40.3 51.9 40.8 52.1 41.3 52.1C41.8 52.1 42.3 51.9 42.7 51.5L43.1 51.2C43.4 51.3 44 51.5 44 51.6V52C44 53.1 44.9 54 46 54H48C49.1 54 50 53.1 50 52V51.5C50 51.4 50.6 51.3 50.9 51.1L51.3 51.5C51.7 51.9 52.2 52.1 52.7 52.1C53.2 52.1 53.7 51.9 54.1 51.5L55.5 50.1C56.3 49.3 56.3 48.1 55.5 47.3L55.2 47C55.3 46.7 55.5 46.1 55.6 46.1H56C57.1 46.1 58 45.2 58 44.1V42.1C58 40.9 57.1 40 56 40ZM34 12H43.6C44 12 44.4 12.3 44.5 12.7L45.6 16H34V12ZM22 12H26V18H28V12H32V19C32 19.5 31.6 20 31 20H23C22.5 20 22 19.6 22 19V12ZM9.5 12.7C9.6 12.3 10 12 10.4 12H20V16H8.4L9.5 12.7ZM38.5 47.2C38.3 47.4 38.1 47.7 38 48H11C9.3 48 8 46.7 8 45V18H20V19C20 20.6 21.3 22 23 22H31C32.6 22 34 20.7 34 19V18H46V32C44.9 32 44 32.9 44 34V34.5C44 34.6 43.4 34.7 43.1 34.9L42.7 34.5C42.3 34.1 41.8 33.9 41.3 33.9C40.8 33.9 40.3 34.1 39.9 34.5L38.5 35.9C37.7 36.7 37.7 37.9 38.5 38.7L38.8 39C38.7 39.3 38.5 39.9 38.4 39.9H38C36.9 39.9 36 40.8 36 41.9V43.9C36 45 36.9 45.9 38 45.9H38.5C38.6 45.9 38.7 46.5 38.9 46.8L38.5 47.2ZM56 44H53.9L53.7 44.8C53.6 45.5 53.4 45.9 53.1 46.4L52.6 47.2L54 48.6L52.6 50L51.2 48.6L50.5 49C49.9 49.3 49.3 49.6 48.7 49.7L48 50V52H46V50L45.2 49.8C44.6 49.6 44 49.4 43.4 49.1L42.7 48.7L41.3 50.1L39.9 48.7L41.3 47.3L40.8 46.5C40.5 46 40.3 45.7 40.2 44.9L40.1 44H38V42H40.1L40.3 41.2C40.4 40.5 40.6 40.1 40.9 39.6L41.4 38.8L40 37.4L41.4 36L42.8 37.4L43.5 37C44.1 36.7 44.7 36.4 45.3 36.3L46 36V34H48V36L48.8 36.2C49.4 36.4 50 36.6 50.6 36.9L51.3 37.3L52.7 35.9L54.1 37.3L52.7 38.7L53.2 39.5C53.5 40 53.7 40.3 53.8 41.1L54 41.9H56V44Z" fill="#6610F2"/>
<path d="M47 39C44.8 39 43 40.8 43 43C43 45.2 44.8 47 47 47C49.2 47 51 45.2 51 43C51 40.8 49.2 39 47 39ZM47 45C45.9 45 45 44.1 45 43C45 41.9 45.9 41 47 41C48.1 41 49 41.9 49 43C49 44.1 48.1 45 47 45Z" fill="#FFC107"/>
</svg>
