<svg width="64" height="64" viewBox="0 0 64 64" fill="none" xmlns="http://www.w3.org/2000/svg">
<path d="M53 6H11C9.346 6 8 7.346 8 9V42V43V47C8 48.654 9.346 50 11 50H32.5L30 48H11C10.448 48 10 47.552 10 47V45.816C10.314 45.928 10.647 46 11 46H31.1699L29 44H11C10.448 44 10 43.552 10 43V42V16H54V39V43C54 43.552 53.552 44 53 44H47L45.5 46H46.5H53C53.353 46 53.686 45.928 54 45.816V47C54 47.552 53.552 48 53 48H46L44 50H53C54.654 50 56 48.654 56 47V43V39V9C56 7.346 54.654 6 53 6ZM28.382 8L31.382 14H26.618L23.618 8H28.382ZM10 9C10 8.448 10.448 8 11 8H21.382L24.382 14H10V9ZM33.618 14L30.618 8H53C53.552 8 54 8.448 54 9V14H33.618Z" fill="#6610F2"/>
<path d="M48.047 39.268L45.869 36H47C48.103 36 49 35.103 49 34V24C49 22.897 48.103 22 47 22H29C27.897 22 27 22.897 27 24V34C27 35.103 27.897 36 29 36H30.131L27.953 39.268C27.248 40.326 27.287 41.718 28.05 42.732L30.087 45.449C30.036 45.625 30 45.807 30 46V48C30 49.103 30.897 50 32 50V55C32 56.654 33.346 58 35 58H41C42.654 58 44 56.654 44 55V50C45.103 50 46 49.103 46 48V46C46 45.807 46 45.5 46 45.5L47.949 42.734C48.713 41.718 48.752 40.325 48.047 39.268ZM29 34V24H47V34H44.535L40.498 27.944C39.939 27.107 39.006 26.607 38 26.607C36.994 26.607 36.061 27.107 35.502 27.944L31.465 34H29ZM39 39C39 39.552 38.552 40 38 40C37.448 40 37 39.552 37 39C37 38.448 37.448 38 38 38C38.552 38 39 38.448 39 39ZM42 55C42 55.552 41.552 56 41 56H35C34.448 56 34 55.552 34 55V50H42V55ZM32 48V46H44L44.002 48H32ZM46.351 41.532L44.457 44.058C44.31 44.023 44.158 44 44 44H32C31.842 44 31.69 44.023 31.543 44.058L29.648 41.531C29.394 41.194 29.381 40.73 29.617 40.378L37 29.303V36.185C35.838 36.599 35 37.699 35 39.001C35 40.655 36.346 42.001 38 42.001C39.654 42.001 41 40.655 41 39.001C41 37.699 40.162 36.599 39 36.185V29.303L46.383 40.377C46.618 40.729 46.605 41.193 46.351 41.532Z" fill="#FFC107"/>
<path d="M14 22H23V24H14V22Z" fill="#6610F2"/>
<path d="M14 26H23V28H14V26Z" fill="#6610F2"/>
<path d="M14 30H23V32H14V30Z" fill="#6610F2"/>
<path d="M14 34H23V36H14V34Z" fill="#6610F2"/>
</svg>
