<svg width="64" height="64" viewBox="0 0 64 64" fill="none" xmlns="http://www.w3.org/2000/svg">
<path d="M64 0H0V64H64V0Z" fill="white"/>
<path d="M44 51.5818C43.4696 51.5818 42.9609 51.7772 42.5858 52.125C42.2107 52.4728 42 52.9445 42 53.4364C42 53.9282 42.2107 54.3999 42.5858 54.7477C42.9609 55.0955 43.4696 55.2909 44 55.2909C44.5304 55.2909 45.0391 55.0955 45.4142 54.7477C45.7893 54.3999 46 53.9282 46 53.4364C46 52.9445 45.7893 52.4728 45.4142 52.125C45.0391 51.7772 44.5304 51.5818 44 51.5818Z" fill="#6610F2"/>
<path d="M40 11.7091H48V13.5636H40V11.7091Z" fill="#6610F2"/>
<path d="M63 25.6538V21.7308C63 20.649 62.8856 19.7692 61.8887 19.7692V12.9038C61.8887 10.1999 59.6526 8 56.9042 8H30.9845C28.2361 8 26 10.1999 26 12.9038V54.0962C26 56.8001 28.2361 59 30.9845 59H56.9042C59.6526 59 61.8887 56.8001 61.8887 54.0962V39.3846C62.8856 39.3846 63 38.5818 63 37.5V33.5C63 32.4182 62.8856 31.5385 61.8887 31.5385V27.6154C62.8856 27.6154 63 26.7356 63 25.6538ZM30.9845 9.96154H56.9042C58.556 9.96154 59.8949 11.2787 59.8949 12.9038V15.8462H27.9938V12.9038C27.9938 11.2787 29.3327 9.96154 30.9845 9.96154ZM59.8949 54.0962C59.8949 55.7213 58.556 57.0385 56.9042 57.0385H30.9845C29.3327 57.0385 27.9938 55.7213 27.9938 54.0962V49.1923H59.8949V54.0962ZM27.9938 47.2308V17.8077H59.8949V47.2308H27.9938Z" fill="#6610F2"/>
<path d="M51 27.4H38V39.4545H51V27.4Z" fill="white"/>
<path d="M46.8021 38.45C46.3205 38.45 45.9893 38.3051 45.6971 38.1773C45.4154 38.0542 45.1719 37.9477 44.7708 37.9477C44.3697 37.9477 44.1262 38.0542 43.8446 38.1773C43.5524 38.3051 43.2211 38.45 42.7396 38.45C41.568 38.45 39.625 35.9565 39.625 33.3017C39.625 31.5412 40.9337 30.1625 42.6042 30.1625C43.1531 30.1625 43.4868 30.3084 43.7812 30.437C44.0607 30.5593 44.3023 30.6648 44.7708 30.6648C45.2394 30.6648 45.481 30.5593 45.7605 30.437C46.0549 30.3084 46.3885 30.1625 46.9375 30.1625C47.659 30.1625 48.3006 30.4091 48.8447 30.8961C48.9362 30.9779 48.9812 31.0952 48.9658 31.2125C48.9503 31.3298 48.8767 31.4335 48.7667 31.4928C48.1395 31.831 47.75 32.548 47.75 33.3645C47.75 34.2839 48.2927 35.0745 49.1004 35.3311C49.2063 35.3648 49.2924 35.4374 49.3384 35.5318C49.3847 35.626 49.3872 35.734 49.3447 35.8301C48.6874 37.3236 47.594 38.45 46.8021 38.45ZM44.9062 29.9114C44.8093 29.9114 44.7145 29.8792 44.6397 29.8189C44.5414 29.7396 44.4897 29.621 44.5016 29.5002C44.5049 29.4694 44.5837 28.7355 45.2039 28.1486C45.7873 27.5961 46.3552 27.4319 46.4178 27.4148C46.5502 27.3791 46.6932 27.4083 46.7972 27.4922C46.9015 27.5758 46.9527 27.7029 46.9334 27.8297C46.9242 27.8902 46.8281 28.4415 46.3289 29.06C45.7946 29.722 45.0314 29.8943 44.9991 29.9013C44.9683 29.9081 44.9371 29.9114 44.9062 29.9114Z" fill="#FFC107"/>
<path d="M1 20.537V15.463C1 15.2085 1.417 15 1.926 15H2.074C2.583 15 2.50016 15.2455 2.50016 15.5L2.5 20.5C2.5 20.7545 2.583 21 2.074 21H1.926C1.417 21 1 20.7915 1 20.537Z" fill="#6610F2"/>
<path d="M28 5H7C4.79086 5 3 6.79086 3 9V54C3 56.2091 4.79086 58 7 58H28C30.2091 58 32 56.2091 32 54V9C32 6.79086 30.2091 5 28 5Z" fill="white" stroke="#6610F2" stroke-width="2"/>
<path d="M24.5002 5H10.5002C9.67182 5 9.00024 5.67157 9.00024 6.5C9.00024 7.32843 9.67182 8 10.5002 8H24.5002C25.3287 8 26.0002 7.32843 26.0002 6.5C26.0002 5.67157 25.3287 5 24.5002 5Z" fill="#6610F2"/>
<path fill-rule="evenodd" clip-rule="evenodd" d="M23.0605 30.877V34.0176C23.0605 34.4609 22.707 34.8203 22.2695 34.8203C21.834 34.8203 21.4805 34.4609 21.4805 34.0176V30.877C21.4805 30.4336 21.832 30.0742 22.2695 30.0742C22.707 30.0742 23.0605 30.4336 23.0605 30.877ZM12.7285 30.0742C12.293 30.0742 11.9395 30.4336 11.9395 30.877V34.0156C11.9395 34.459 12.293 34.8203 12.7285 34.8203C13.168 34.8203 13.5195 34.459 13.5195 34.0156V30.877C13.5195 30.4336 13.168 30.0742 12.7285 30.0742ZM13.9961 35.832C13.9961 36.1738 14.2734 36.4492 14.6133 36.4492H15.3184V38.1973C15.3184 38.6406 15.6738 39 16.1094 39C16.5469 39 16.9004 38.6406 16.9004 38.1973V36.4492H18.1309V38.1973C18.1309 38.6406 18.4863 39 18.9219 39C19.3594 39 19.7129 38.6406 19.7129 38.1973V36.4492H20.418C20.7578 36.4492 21.0352 36.1758 21.0352 35.834V30.0977H13.9961V35.832ZM21.0176 29.5879H13.9805C14.0723 28.5195 14.7969 27.6074 15.832 27.127L15.1816 26.1816C15.1426 26.127 15.1523 26.0527 15.2012 26.0176C15.252 25.9844 15.3242 26 15.3652 26.0566L16.0391 27.0371C16.4844 26.8613 16.9785 26.7637 17.5 26.7637C18.0215 26.7637 18.5137 26.8613 18.9609 27.0371L19.6348 26.0566C19.6758 26 19.748 25.9844 19.7988 26.0176C19.8477 26.0527 19.8574 26.127 19.8184 26.1816L19.168 27.127C20.2012 27.6074 20.9277 28.5195 21.0176 29.5879ZM16.4062 28.2227C16.4062 28.0078 16.2305 27.8359 16.0156 27.8359C15.8008 27.8359 15.625 28.0098 15.625 28.2227C15.625 28.4395 15.8008 28.6133 16.0156 28.6133C16.2305 28.6133 16.4062 28.4395 16.4062 28.2227ZM19.4219 28.2227C19.4219 28.0078 19.248 27.8359 19.0332 27.8359C18.8184 27.8359 18.6445 28.0098 18.6445 28.2227C18.6445 28.4395 18.8184 28.6133 19.0332 28.6133C19.248 28.6133 19.4219 28.4395 19.4219 28.2227Z" fill="#FFC107"/>
<path d="M24 53H11V55H24V53Z" fill="#6610F2"/>
</svg>
