<svg width="64" height="64" viewBox="0 0 64 64" fill="none" xmlns="http://www.w3.org/2000/svg">
<path d="M41 15.278V9C41 7.346 39.654 6 38 6H26C24.346 6 23 7.346 23 9V15.278C22.405 15.625 22 16.263 22 17V19C22 19.737 22.405 20.375 23 20.722V25V28V47.287L28.497 56.069C29.255 57.278 30.564 58 32 58C33.436 58 34.745 57.278 35.503 56.068L41 47.287V28V25V21V20.731C41.598 20.385 42 19.739 42 19V17C42 16.263 41.595 15.625 41 15.278ZM24 19V17H40L40.002 19H24ZM35 28V43.331C34.345 43.189 34 43.088 33 43.041V30V25V21H35V25V28ZM35.039 53.039C34.196 52.391 33.146 52 32 52C30.854 52 29.803 52.391 28.96 53.04L27.363 50.488C28.711 49.526 30.325 49 32 49C33.674 49 35.289 49.526 36.637 50.487L35.039 53.039ZM32 47C29.947 47 27.967 47.635 26.302 48.793L25.238 47.094C27.232 45.725 29.552 45 32 45C34.448 45 36.768 45.726 38.762 47.093L37.698 48.793C36.032 47.635 34.052 47 32 47ZM29 25V21H31V25V30V43.041C30.322 43.088 30 43.189 29 43.331V28V25ZM26 8H38C38.552 8 39 8.448 39 9V15H25V9C25 8.448 25.448 8 26 8ZM25 25V21H27V25V28V43.927C26.311 44.191 26 44.509 25 44.883V28V25ZM39 25V28V44.883C38.357 44.509 38 44.191 37 43.927V28V25V21H39V25Z" fill="#6610F2"/>
<path d="M8 28V36C8 37.654 9.346 39 11 39H23V37H11C10.448 37 10 36.552 10 36V28C10 27.448 10.448 27 11 27H13V29H15V27H17V29H19V27H21V31H23V25H11C9.346 25 8 26.346 8 28Z" fill="#FFC107"/>
<path d="M53 25H41V31H43V27H45V29H47V27H49V29H51V27H53C53.552 27 54 27.448 54 28V36C54 36.552 53.552 37 53 37H41V39H53C54.654 39 56 37.654 56 36V28C56 26.346 54.654 25 53 25Z" fill="#FFC107"/>
</svg>
