<svg width="64" height="64" viewBox="0 0 64 64" fill="none" xmlns="http://www.w3.org/2000/svg">
<path d="M55 10H9C7.346 10 6 11.346 6 13V45C6 46.654 7.346 48 9 48H26V51C26 51.552 25.551 52 25 52H23H22C20.346 52 19 53.346 19 55V58H45V55C45 53.346 43.654 52 42 52H41H39C38.449 52 38 51.552 38 51V48H55C56.654 48 58 46.654 58 45V13C58 11.346 56.654 10 55 10ZM9 12H55C55.551 12 56 12.448 56 13V36H8V13C8 12.448 8.449 12 9 12ZM41 54H42C42.551 54 43 54.448 43 55V56H21V55C21 54.448 21.449 54 22 54H23H25H39H41ZM36.184 52H27.815C27.928 51.686 28 51.352 28 51V48H36V51C36 51.352 36.072 51.686 36.184 52ZM55 46H38H26H9C8.449 46 8 45.552 8 45V38H56V45C56 45.552 55.551 46 55 46Z" fill="#792EF4"/>
<path d="M32 40C31.4696 40 30.9609 40.2107 30.5858 40.5858C30.2107 40.9609 30 41.4696 30 42C30 42.5304 30.2107 43.0391 30.5858 43.4142C30.9609 43.7893 31.4696 44 32 44C32.5304 44 33.0391 43.7893 33.4142 43.4142C33.7893 43.0391 34 42.5304 34 42C34 41.4696 33.7893 40.9609 33.4142 40.5858C33.0391 40.2107 32.5304 40 32 40Z" fill="#792EF4"/>
<path d="M29.9202 30.0887C29.6799 30.1758 29.4069 30.1712 29.1568 30.0543C28.6574 29.8206 28.442 29.2265 28.6756 28.727L32.8638 19.7744C33.0974 19.2749 33.6916 19.0595 34.191 19.2932C34.6905 19.5268 34.9059 20.121 34.6722 20.6204L30.4841 29.5731C30.3671 29.8231 30.1604 30.0016 29.9202 30.0887Z" fill="#FFC107"/>
<path d="M43.1315 24.6315L39.3105 28.4525C38.8965 28.8665 38.8965 29.5385 39.3105 29.9525C39.7245 30.3665 40.3965 30.3665 40.8105 29.9525L45.4245 25.3385C45.8155 24.9475 45.8155 24.3145 45.4245 23.9245L40.8105 19.3105C40.3965 18.8965 39.7245 18.8965 39.3105 19.3105C38.8965 19.7245 38.8965 20.3965 39.3105 20.8105L43.1315 24.6315Z" fill="#FFC107"/>
<path d="M20.5864 24.6315L24.4074 20.8105C24.8214 20.3965 24.8214 19.7245 24.4074 19.3105C23.9934 18.8965 23.3214 18.8965 22.9074 19.3105L18.2932 23.9245C17.9022 24.3155 17.9022 24.9485 18.2932 25.3385L22.9074 29.9525C23.3214 30.3665 23.9934 30.3665 24.4074 29.9525C24.8214 29.5385 24.8214 28.8665 24.4074 28.4525L20.5864 24.6315Z" fill="#FFC107"/>
</svg>
