<svg width="64" height="64" viewBox="0 0 64 64" fill="none" xmlns="http://www.w3.org/2000/svg">
<path d="M57.999 32C57.999 29.794 56.205 28 53.999 28H53.912L54.055 27.607C54.529 26.306 54.468 24.898 53.882 23.642C53.863 23.6 53.833 23.566 53.813 23.525C54.947 23.415 55.977 22.7 56.395 21.593L57.81 17.857C58.091 17.114 58.06 16.307 57.724 15.586C57.378 14.845 56.755 14.286 55.969 14.011L33.518 6.17601C31.941 5.62501 30.184 6.42301 29.604 7.95501L28.19 11.692C27.909 12.435 27.94 13.241 28.275 13.962C28.419 14.271 28.62 14.538 28.852 14.777C27.873 15.316 27.058 16.158 26.615 17.262L25.072 21.113L23.914 24H20.999C18.614 24 16.506 25.201 15.242 27.028C14.692 26.403 13.896 26 12.999 26H8.999C7.345 26 6 27.346 6 29V51C6 52.654 7.345 54 8.999 54H12.999C14.387 54 15.546 53.048 15.888 51.767C16.951 52.906 18 53.688 20 53.92V54C20 56.206 21.794 58 24 58C25.2 58 26.266 57.458 27 56.618C27.734 57.458 28.8 58 30 58C31.2 58 32.266 57.458 33 56.618C33.734 57.458 34.8 58 36 58C37.2 58 38.266 57.458 39 56.618C39.734 57.458 40.8 58 42 58C44.206 58 46 56 46 54H50C52.206 54 54 52.206 54 50C54 49.171 53.746 48.4 53.313 47.761C54.872 47.215 56 45.744 56 44C56 42.8 55.458 41.734 54.618 41C55.458 40.266 56 39.2 56 38C56 37.171 55.746 36.4 55.313 35.761C56.871 35.215 57.999 33.744 57.999 32ZM30.06 12.4L31.474 8.66301C31.673 8.13801 32.294 7.87101 32.858 8.06501L55.309 15.899C55.582 15.994 55.796 16.183 55.912 16.431C56.018 16.66 56.028 16.914 55.94 17.15L54.525 20.886C54.326 21.413 53.707 21.682 53.141 21.484L33.946 14.787L33.017 14.439C32.924 14.404 32.829 14.394 32.735 14.365L30.691 13.652C30.418 13.556 30.203 13.366 30.087 13.118C29.981 12.889 29.971 12.634 30.06 12.4ZM26.928 21.858L28.471 18.006C29.036 16.596 30.586 15.856 32.028 16.236L33.243 16.66L36.648 17.936L36.677 17.858L50.348 22.627C50.348 22.627 51.71 23.716 52.07 24.487C52.429 25.258 52.467 26.123 52.176 26.922L51.784 28H30.56L26.946 37.931C26.672 38.684 26.121 39.286 25.394 39.623C24.667 39.963 23.852 39.999 23.101 39.724C21.546 39.158 20.742 37.433 21.296 35.909L26.928 21.858ZM14 51C14 51.552 13.551 52 12.999 52H8.999C8.448 52 8 51.552 8 51V29C8 28.448 8.448 28 8.999 28H12.999C13.551 28 14 28.449 14 29V31V34V43V47V51ZM24 56C22.897 56 22 55.103 22 54V52C22 50.897 22.897 50 24 50C25.103 50 26 50.897 26 52V54C26 55.103 25.103 56 24 56ZM30 56C28.897 56 28 55.103 28 54V52V51C28 49.897 28.897 49 30 49C31.103 49 32 49.897 32 51V52V54C32 55.103 31.103 56 30 56ZM36 56C34.897 56 34 55.103 34 54V52C34 50.897 34.897 50 36 50C37.103 50 38 50.897 38 52V54C38 55.103 37.103 56 36 56ZM41.999 56C40.896 56 39.999 55.103 39.999 54C39.999 52.897 40.896 52 41.999 52C43.102 52 43.999 52.897 43.999 54C43.999 55.103 43.102 56 41.999 56ZM53.999 34H42V36H51.999C53.102 36 53.999 36.897 53.999 38C53.999 39.103 53.102 40 51.999 40H42V42H51.999C53.102 42 53.999 42.897 53.999 44C53.999 45.103 53.102 46 51.999 46H42V48H49.999C51.102 48 51.999 48.897 51.999 50C51.999 51.103 51.102 52 49.999 52H45.443C44.749 51 43.473 50 41.999 50C41.17 50 40.399 50.254 39.76 50.688C39.214 49.128 37.743 48 35.999 48C35.013 48 34.122 48.372 33.424 48.965C32.726 47.794 31.459 47 29.999 47C28.539 47 27.273 47.794 26.574 48.965C25.877 48.372 24.985 48 23.999 48C21.828 48 20.064 49.741 20.009 51.9C17.726 51.439 16 49.418 16 47V43V34V31C16 28.243 18.243 26 20.999 26H23.112L19.427 35.194C18.484 37.784 19.824 40.659 22.415 41.602C22.973 41.805 23.552 41.907 24.128 41.907C24.848 41.907 25.566 41.749 26.238 41.436C27.448 40.872 28.367 39.869 28.823 38.614L31.96 30H53.999C55.102 30 55.999 30.897 55.999 32C55.999 33.103 55.102 34 53.999 34Z" fill="#701FF3"/>
<path d="M13 49C13 49.552 12.104 50 11 50C9.896 50 9 49.552 9 49V31C9 30.448 9.896 30 11 30C12.104 30 13 30.448 13 31V40V49Z" fill="#FFC107"/>
</svg>
