<svg width="64" height="64" viewBox="0 0 64 64" fill="none" xmlns="http://www.w3.org/2000/svg">
<path d="M54.394 33.931L48.248 26.909C48.088 26.726 48 26.491 48 26.248V18C48 16.874 47.621 15.837 46.99 15H47C48.654 15 50 13.654 50 12V10C50 8.346 48.654 7 47 7H27.722C27.375 6.405 26.737 6 26 6H24C23.263 6 22.625 6.405 22.278 7H18C13.037 7 9 11.037 9 16V44C9 47.519 11.614 50.432 15 50.92V51V54V57H17V54V51V42H15V48.899C12.721 48.434 11 46.415 11 44V16C11 12.141 14.141 9 18 9H22V21.78C21.391 22.33 21 23.117 21 24V25.209C18.696 25.858 17 27.974 17 30.483V35.516C17 38.54 19.46 41 22.483 41H24.362C25.204 43.369 27.457 45 29.999 45H41.183C41.597 46.161 42.697 47 43.999 47H45.999V48C45.999 48.552 45.551 49 44.999 49H37.999C36.345 49 34.999 50.346 34.999 52V57H36.999V52C36.999 51.448 37.447 51 37.999 51H44.999C46.653 51 47.999 49.654 47.999 48V46.816C49.16 46.402 49.999 45.302 49.999 44C49.999 42.698 49.16 41.598 47.999 41.184V38H52.545C53.899 38 55 36.899 55 35.546C55 34.951 54.784 34.378 54.394 33.931ZM24 23H26C26.552 23 27 23.448 27 24V25H23V24C23 23.448 23.448 23 24 23ZM24 8H26V21H24V8ZM19 35.517V30.484C19 28.563 20.563 27 22.483 27H27.516C29.438 27 31 28.563 31 30.483V35.516C31 37.438 29.438 39 27.517 39H22.484C20.563 39 19 37.438 19 35.517ZM47 45H44C43.448 45 43 44.552 43 44C43 43.448 43.448 43 44 43H47C47.552 43 48 43.448 48 44C48 44.552 47.552 45 47 45ZM52.546 36H46V41H44C42.698 41 41.598 41.839 41.184 43H30C28.556 43 27.254 42.208 26.551 41H27.517C30.54 41 33 38.54 33 35.517V30.484C33 27.975 31.304 25.859 29 25.21V24C29 23.117 28.609 22.33 28 21.78V9H47C47.552 9 48 9.448 48 10V12C48 12.552 47.552 13 47 13H32V15H43C44.654 15 46 16.346 46 18V26.248C46 26.976 46.264 27.677 46.742 28.225L52.888 35.247C52.96 35.33 53 35.436 53 35.546C53 35.796 52.796 36 52.546 36Z" fill="#792EF4"/>
<path d="M38 27H41V30H43V25H38V27Z" fill="#792EF4"/>
<path d="M43 21H38V23H43V21Z" fill="#792EF4"/>
<path d="M27.739 36.75H22.261C21.565 36.75 21 36.185 21 35.489V30.261C21 29.565 21.565 29 22.261 29H27.739C28.435 29 29 29.565 29 30.261V35.489C29 36.185 28.435 36.75 27.739 36.75Z" fill="#FFC107"/>
<rect x="14" y="57" width="24" height="2" rx="1" fill="#792EF4"/>
</svg>
