<svg width="64" height="64" viewBox="0 0 64 64" fill="none" xmlns="http://www.w3.org/2000/svg">
<path d="M55 16H54V15C54 13.3 52.7 12 51 12H50H17V6H13C9.1 6 6 9.1 6 13V51C6 52.8 6.7 54.6 8 55.9C9.3 57.3 11.1 58 13 58H50H55C56.7 58 58 56.7 58 55V19C58 17.3 56.7 16 55 16ZM8 13C8 10.2 10.2 8 13 8H15V12.5V44H13.3C11.3 44 9.4 44.8 8 46.2V13ZM56 55C56 55.6 55.6 56 55 56H50H13C11.6 56 10.4 55.5 9.4 54.5C8.5 53.5 7.9 52.2 8 50.9C8.1 48.2 10.4 46.1 13.2 46.1H17V14H51C51.6 14 52 14.4 52 15V51C52 51.6 51.6 52 51 52H20V54H51C52.7 54 54 52.7 54 51V18H55C55.6 18 56 18.4 56 19V55Z" fill="#792EF4"/>
<path d="M47 44H45V35H43V44H40V36H38V44H35V34H33V44H30V33H28V44H25V37H23V44H21V46H47V44Z" fill="#792EF4"/>
<path d="M47.4002 20.4L43 21.5C42.3 21.7 42 22.6 42.6 23.2L43.5 24.1L37.7001 29.9C37.3001 30.3 36.7 30.3 36.3 29.9L30.6 24.7C29.4002 23.6 27.5 23.7 26.4 24.8L20.3 31.2L21.8 32.6L27.9 26.2C28.3 25.8 28.9 25.8 29.3 26.2L35 31.4C36.2 32.5 38 32.4 39.2001 31.3L45 25.5L45.9002 26.4C46.4002 26.9 47.4 26.7 47.6 26L48.8 21.6C48.8 20.9 48.1002 20.2 47.4002 20.4Z" fill="#FFC107"/>
</svg>
